<svg xmlns="http://www.w3.org/2000/svg" xmlns:xlink="http://www.w3.org/1999/xlink" viewBox="0,0,256,256" width="50px" height="50px"><g fill="#ffffff" fill-rule="nonzero" stroke="none" stroke-width="1" stroke-linecap="butt" stroke-linejoin="miter" stroke-miterlimit="10" stroke-dasharray="" stroke-dashoffset="0" font-family="none" font-weight="none" font-size="none" text-anchor="none" style="mix-blend-mode: normal"><g transform="scale(4,4)"><path d="M13.02344,12c-0.43917,-0.01048 -0.83376,0.26684 -0.97266,0.68359c-1.24238,3.7261 -1.34672,8.25929 -1.26172,11.47266c-2.95158,3.27564 -4.78906,7.58853 -4.78906,12.34375c0,10.20544 8.29456,18.5 18.5,18.5h12.5c5.62555,0 9.61087,-1.04466 12.24805,-3.14648c2.63717,-2.10183 3.75195,-5.23057 3.75195,-8.85352c0,-6.00976 -4.62507,-11.86914 -11.30664,-11.86914c-0.49284,0 -0.89014,0.19841 -1.33008,0.31445c-0.58654,-0.22634 -1.18186,-0.44957 -1.88086,-0.44531h-14.36133c-0.40619,0 -0.72722,0.20136 -1.09375,0.30469c-0.3447,-0.10144 -0.6449,-0.30469 -1.02734,-0.30469c-3.30773,0 -6.1128,1.37047 -8.03125,3.56445c-1.91845,2.19399 -2.96875,5.18268 -2.96875,8.43555c-0.0051,0.36064 0.18438,0.69608 0.49587,0.87789c0.3115,0.18181 0.69676,0.18181 1.00825,0c0.3115,-0.18181 0.50097,-0.51725 0.49587,-0.87789c0,-2.82214 0.91181,-5.33188 2.47461,-7.11914c1.17826,-1.34748 2.82591,-2.11465 4.69727,-2.50195c-0.7586,1.18762 -1.19395,2.61116 -1.30664,4.05273c-0.11935,1.52683 0.08569,3.06243 0.73242,4.32422c0.64673,1.26179 1.89024,2.26563 3.4707,2.26563c1.54088,0 2.73647,-1.0345 3.33203,-2.29492c0.59556,-1.26042 0.76636,-2.78328 0.63672,-4.30078c-0.12964,-1.5175 -0.56528,-3.0337 -1.36914,-4.25391c-0.0448,-0.068 -0.12414,-0.10566 -0.17187,-0.17187h12.17969c-0.06807,0.07713 -0.1768,0.11689 -0.24023,0.19727c-0.95425,1.20909 -1.44378,2.73427 -1.57227,4.24609c-0.12848,1.51183 0.09707,3.02367 0.74414,4.25977c0.64707,1.23609 1.86141,2.22266 3.39258,2.22266c1.51917,0 2.71718,-1.00396 3.37109,-2.24609c0.65391,-1.24213 0.90592,-2.76583 0.81055,-4.29297c-0.08829,-1.41378 -0.52315,-2.81603 -1.31641,-3.99414c4.8235,0.67215 8.13477,5.00615 8.13477,9.60742c0,3.23405 -0.88522,5.60514 -2.99805,7.28906c-2.11283,1.68392 -5.6275,2.71094 -11.00195,2.71094h-12.5c-9.12456,0 -16.5,-7.37544 -16.5,-16.5c0,-4.38533 1.71786,-8.35064 4.50781,-11.30859c0.1821,-0.1934 0.27977,-0.45129 0.27149,-0.7168c-0.09051,-2.86835 0.10163,-6.96539 1.00391,-10.25977c4.48737,0.85348 8.35263,3.58618 10.5293,5.53125c0.18329,0.16356 0.42036,0.25394 0.66602,0.25391h14.52148c-0.005,0 0.07466,0.01168 0.24609,0.01367c0.24995,0.0024 0.49173,-0.08888 0.67773,-0.25586c2.1727,-1.94394 6.04154,-4.6831 10.53516,-5.54102c0.98785,3.60756 1.11184,8.18438 0.98242,11.03516c-0.01139,0.24927 0.07081,0.49378 0.23047,0.68555c0.34361,0.41233 5.66629,6.6611 2.22656,14.77734c-0.13968,0.32903 -0.09318,0.70759 0.12198,0.99303c0.21516,0.28544 0.56628,0.43438 0.92105,0.39069c0.35477,-0.04369 0.65927,-0.27336 0.79876,-0.60247c3.66916,-8.6576 -1.49792,-15.51426 -2.30273,-16.51758c0.13105,-3.20654 0.11684,-8.23058 -1.23828,-12.29492c-0.15098,-0.4527 -0.60078,-0.73566 -1.07422,-0.67578c-5.35995,0.67038 -9.63437,3.77784 -12.16602,5.99219h-14.16602c-2.53184,-2.21424 -6.81141,-5.32263 -12.16992,-5.99219c-0.03305,-0.00426 -0.0663,-0.00687 -0.09961,-0.00781zM23.01953,33.29492c0.35592,0.21123 0.67988,0.52325 0.97852,0.97656c0.55748,0.84623 0.94114,2.08647 1.04688,3.32422c0.10574,1.23775 -0.07228,2.46937 -0.45312,3.27539c-0.38085,0.80602 -0.79031,1.15039 -1.52344,1.15039c-0.81304,0 -1.27898,-0.37308 -1.69141,-1.17773c-0.41242,-0.80465 -0.6136,-2.02744 -0.51758,-3.25586c0.09602,-1.22842 0.48408,-2.45543 1.06641,-3.29687c0.3217,-0.46485 0.68636,-0.78014 1.09375,-0.99609zM40.17773,33.4668c0.35079,0.21607 0.67039,0.47448 0.9375,0.82813c0.61756,0.81763 0.99481,2.00781 1.07031,3.2168c0.0755,1.20898 -0.15637,2.42406 -0.58398,3.23633c-0.42762,0.81227 -0.90823,1.17773 -1.60156,1.17773c-0.73833,0 -1.20851,-0.36223 -1.62109,-1.15039c-0.41258,-0.78816 -0.62238,-1.97494 -0.52148,-3.16211c0.10089,-1.18717 0.50509,-2.36257 1.14844,-3.17773c0.3313,-0.41978 0.71628,-0.74362 1.17188,-0.96875z"></path></g></g></svg>