<?xml version="1.0" encoding="UTF-8"?>
<!DOCTYPE svg PUBLIC "-//W3C//DTD SVG 1.1//EN" "http://www.w3.org/Graphics/SVG/1.1/DTD/svg11.dtd">
<svg xmlns="http://www.w3.org/2000/svg" version="1.1" width="50px" height="50px" style="shape-rendering:geometricPrecision; text-rendering:geometricPrecision; image-rendering:optimizeQuality; fill-rule:evenodd; clip-rule:evenodd" xmlns:xlink="http://www.w3.org/1999/xlink">
<g><path style="opacity:0.649" fill="#fefffe" d="M 8.5,7.5 C 19.1719,7.3335 29.8385,7.50016 40.5,8C 41.6667,8.5 42.5,9.33333 43,10.5C 43.6667,18.5 43.6667,26.5 43,34.5C 42.5,35 42,35.5 41.5,36C 34.4763,36.8311 27.4763,36.6644 20.5,35.5C 26.4725,34.6697 32.4725,34.1697 38.5,34C 39.3081,33.6924 39.9747,33.1924 40.5,32.5C 41.6282,25.8843 41.7948,19.2177 41,12.5C 40.5,12 40,11.5 39.5,11C 29.5,10.3333 19.5,10.3333 9.5,11C 9,11.5 8.5,12 8,12.5C 7.33333,18.8333 7.33333,25.1667 8,31.5C 8.69951,33.032 9.86618,34.032 11.5,34.5C 12.0997,36.5756 12.433,38.5756 12.5,40.5C 16.0086,37.727 17.3419,34.0604 16.5,29.5C 14.0418,29.7725 12.3751,28.7725 11.5,26.5C 13.8333,22.5 16.1667,22.5 18.5,26.5C 24.4632,27.4959 30.4632,27.8293 36.5,27.5C 36.5,25.8333 36.5,24.1667 36.5,22.5C 28.1667,22.5 19.8333,22.5 11.5,22.5C 11.5,19.5 11.5,16.5 11.5,13.5C 20.8393,13.3335 30.1726,13.5002 39.5,14C 31.3374,15.4672 23.0041,15.9672 14.5,15.5C 14.5,17.1667 14.5,18.8333 14.5,20.5C 22.8333,20.5 31.1667,20.5 39.5,20.5C 39.7771,23.4475 39.4438,26.2809 38.5,29C 31.8333,29.3333 25.1667,29.6667 18.5,30C 20.2579,39.42 16.2579,44.2533 6.5,44.5C 6.9802,41.9954 7.9802,39.6621 9.5,37.5C 8.65327,36.1552 7.4866,35.1552 6,34.5C 5.33333,26.5 5.33333,18.5 6,10.5C 6.69794,9.30943 7.53128,8.30943 8.5,7.5 Z"/></g>
</svg>
